<svg xmlns="http://www.w3.org/2000/svg" width="118" height="27" fill="none"><g fill="currentColor" clip-path="url(#a)"><path d="M118 22.15v3.584h-8.946V.427h4.407v21.724H118ZM101.452 18.635h1.822l-.795-10.057-1.027 10.057ZM105.097.427l3.379 25.24h-4.44l-.332-3.517h-2.618l-.332 3.518h-3.677l3.281-25.24h4.739ZM98.429.427v3.484h-3.48v21.822h-4.406V3.912h-3.445V.427h11.33ZM86.391.427v25.306h-3.248l-3.278-12.981v12.981H76.22V.427h3.71l2.817 11.207V.427h3.644ZM75.471 22.184v3.484h-8.946V.428h8.912V3.91h-4.506v7h3.744v3.55H70.93v7.723h4.54ZM65.26.427v25.306h-4.243V13.902L59.13 25.734h-2.717l-1.988-11.832v11.832H50.78V.427h5.104l2.02 14.888L60.29.427h4.97ZM49.653.427v20.344c0 3.517-2.188 5.292-5.434 5.292s-5.4-1.775-5.4-5.258V.427h4.373V21.23c0 .953.498 1.446 1.26 1.446.696 0 .994-.493.994-1.48V.428h4.208-.001ZM37.682.427v25.306h-3.248l-3.28-12.981v12.981h-3.645V.427h3.71l2.818 11.207V.427h3.645ZM22.106 21.33V4.733c0-.986-.564-1.38-1.093-1.38-.663 0-1.127.395-1.127 1.38v16.563c0 .953.43 1.38 1.16 1.38.661 0 1.06-.395 1.06-1.348v.002Zm4.373-15.743v14.888c0 4.14-2.485 5.588-5.434 5.588-2.948 0-5.567-1.545-5.567-5.588V5.587C15.48 1.48 18.064 0 21.046 0c2.981 0 5.434 1.446 5.434 5.587ZM14.479.427v25.306h-4.241V13.902L8.35 25.734H5.633L3.645 13.901v11.832H0V.427h5.102l2.022 14.888L9.51.427h4.97Z"></path></g><defs><clipPath id="a"><path fill="currentColor" d="M0 0h118v26.061H0z"></path></clipPath></defs></svg>